<svg xmlns="http://www.w3.org/2000/svg" viewBox="0 0 96 96" fill="none">
  <circle cx="47" cy="45" r="25" fill="#fb923c" opacity=".18"/>
  <path d="M71 64 C82 65 86 75 79 82" stroke="#111827" stroke-width="4" stroke-linecap="round"/>
  <path d="M79 82 L86 78 L83 87 Z" fill="#ef4444" stroke="#111827" stroke-width="2" stroke-linejoin="round"/>
  <path d="M21 40 C12 37 8 40 6 49" stroke="#111827" stroke-width="3.8" stroke-linecap="round"/>
  <path d="M74 39 C83 36 88 40 91 49" stroke="#111827" stroke-width="3.8" stroke-linecap="round"/>
  <path d="M6 48 L-1 62" stroke="#4b5563" stroke-width="3.2" stroke-linecap="round"/>
  <path d="M-3 61 L3 65 L1 54" fill="#f8fafc" stroke="#111827" stroke-width="2" stroke-linejoin="round"/>
  <path d="M30 14 L22 23 L31 29" fill="#111827"/>
  <path d="M57 14 L66 22 L56 29" fill="#111827"/>
  <g transform="rotate(-2 47 44)">
    <path d="M28 18 H58 Q65 18 65 25 V64 Q65 70 58 70 H28 Q20 70 20 62 V26 Q20 18 28 18Z" fill="#ef4444" stroke="#111827" stroke-width="3"/>
    <path d="M58 18 H64 L70 24 V64 L65 70 H58 Z" fill="#f6d7d4" stroke="#111827" stroke-width="3" stroke-linejoin="round"/>
    <ellipse cx="35" cy="39" rx="7" ry="8" fill="#fff7ed" stroke="#111827" stroke-width="2.6"/>
    <ellipse cx="50" cy="39" rx="7" ry="8" fill="#fff7ed" stroke="#111827" stroke-width="2.6"/>
    <circle cx="36" cy="40" r="3" fill="#facc15"/>
    <circle cx="51" cy="40" r="3" fill="#facc15"/>
    <path d="M30 50 Q44 65 56 49" stroke="#111827" stroke-width="3.6" stroke-linecap="round"/>
    <path d="M35 55 L40 62 L44 54 L48 61 L53 53" stroke="#fff7ed" stroke-width="2.3" stroke-linecap="round" stroke-linejoin="round"/>
  </g>
</svg>
