<svg xmlns="http://www.w3.org/2000/svg" viewBox="0 0 96 96" fill="none">
  <path d="M69 67 C80 69 84 77 78 83" stroke="#111827" stroke-width="4" stroke-linecap="round"/>
  <path d="M78 83 L85 80 L82 88 Z" fill="#ef4444" stroke="#111827" stroke-width="2" stroke-linejoin="round"/>
  <path d="M19 47 C12 48 8 53 6 61" stroke="#111827" stroke-width="3.6" stroke-linecap="round"/>
  <path d="M74 47 C81 49 86 54 88 62" stroke="#111827" stroke-width="3.6" stroke-linecap="round"/>
  <path d="M6 60 L6 75" stroke="#111827" stroke-width="3.2" stroke-linecap="round"/>
  <path d="M2 64 H10 M0 69 H12 M-2 74 H14" stroke="#9ca3af" stroke-width="2.2" stroke-linecap="round"/>
  <path d="M29 18 L21 26 L30 30" fill="#111827"/>
  <path d="M56 18 L64 25 L55 30" fill="#111827"/>
  <g transform="rotate(11 47 45)">
    <path d="M28 20 H58 Q65 20 65 27 V64 Q65 70 58 70 H28 Q20 70 20 62 V28 Q20 20 28 20Z" fill="#7f1d1d" stroke="#111827" stroke-width="3"/>
    <path d="M58 20 H64 L70 26 V64 L65 70 H58 Z" fill="#eadbc9" stroke="#111827" stroke-width="3" stroke-linejoin="round"/>
    <path d="M30 31 L37 38 M37 31 L30 38" stroke="#111827" stroke-width="2.6" stroke-linecap="round"/>
    <ellipse cx="50" cy="39" rx="6.8" ry="7.8" fill="#fff" stroke="#111827" stroke-width="2.4"/>
    <circle cx="48" cy="41" r="2.7" fill="#991b1b"/>
    <path d="M33 55 Q43 49 54 56" stroke="#111827" stroke-width="3" stroke-linecap="round"/>
    <circle cx="44" cy="58" r="8" stroke="#fca5a5" stroke-opacity=".45" stroke-width="1.8"/>
    <path d="M38 58 L42 54 L46 62 L50 54" stroke="#fca5a5" stroke-opacity=".45" stroke-width="1.6" stroke-linecap="round" stroke-linejoin="round"/>
    <path d="M56 60 L60 64" stroke="#f87171" stroke-width="2.2" stroke-linecap="round"/>
  </g>
</svg>
