<svg xmlns="http://www.w3.org/2000/svg" viewBox="0 0 96 96" fill="none">
  <path d="M71 63 C82 65 87 74 80 82" stroke="#111827" stroke-width="4" stroke-linecap="round"/>
  <path d="M80 82 L87 79 L84 88 Z" fill="#ef4444" stroke="#111827" stroke-width="2" stroke-linejoin="round"/>
  <path d="M24 41 C15 39 10 42 6 49" stroke="#111827" stroke-width="3.8" stroke-linecap="round"/>
  <path d="M75 48 C83 50 88 55 91 63" stroke="#111827" stroke-width="3.8" stroke-linecap="round"/>
  <path d="M6 48 L6 63" stroke="#111827" stroke-width="3.2" stroke-linecap="round"/>
  <path d="M2 52 H10 M0 57 H12 M-2 62 H14" stroke="#9ca3af" stroke-width="2.2" stroke-linecap="round"/>
  <path d="M29 16 L21 24 L30 30" fill="#111827"/>
  <path d="M56 16 L65 24 L56 30" fill="#111827"/>
  <g transform="rotate(10 47 45)">
    <path d="M28 20 H58 Q65 20 65 27 V64 Q65 70 58 70 H28 Q20 70 20 62 V28 Q20 20 28 20Z" fill="#7f1d1d" stroke="#111827" stroke-width="3"/>
    <path d="M58 20 H64 L70 26 V64 L65 70 H58 Z" fill="#eadbc9" stroke="#111827" stroke-width="3" stroke-linejoin="round"/>
    <ellipse cx="35" cy="39" rx="7" ry="8" fill="#fff" stroke="#111827" stroke-width="2.4"/>
    <ellipse cx="50" cy="39" rx="7" ry="8" fill="#fff" stroke="#111827" stroke-width="2.4"/>
    <circle cx="33" cy="40" r="2.8" fill="#991b1b"/>
    <circle cx="48" cy="40" r="2.8" fill="#991b1b"/>
    <path d="M30 52 Q43 61 56 54" stroke="#111827" stroke-width="3.4" stroke-linecap="round"/>
    <path d="M35 56 L40 61 L45 56 L49 61 L54 57" stroke="#fff7ed" stroke-width="2.1" stroke-linecap="round" stroke-linejoin="round"/>
    <circle cx="44" cy="58" r="8" stroke="#fca5a5" stroke-opacity=".45" stroke-width="1.8"/>
    <path d="M38 58 L42 54 L46 62 L50 54" stroke="#fca5a5" stroke-opacity=".45" stroke-width="1.6" stroke-linecap="round" stroke-linejoin="round"/>
  </g>
</svg>
